<?xml version="1.0" encoding="utf-8"?>
<!-- Generator: Adobe Illustrator 25.2.1, SVG Export Plug-In . SVG Version: 6.00 Build 0)  -->
<svg version="1.1" id="currentIllo" xmlns="http://www.w3.org/2000/svg" xmlns:xlink="http://www.w3.org/1999/xlink" x="0px"
	 y="0px" viewBox="0 0 951.2 632.2" style="enable-background:new 0 0 951.2 632.2;" xml:space="preserve">
<style type="text/css">
	.st0{fill:#F0F0F0;}
	.st1{fill:#FFFFFF;}
	.st2{fill:#3F3D56;}
	.st3{fill:#E5E5E5;}
	.st4{fill:#9E616A;}
	.st5{fill:#2F2E41;}
	.st6{opacity:0.2;enable-background:new    ;}
	.st7{fill:#6C63FF;}
</style>
<path class="st0" d="M380.3,334.3c25.1-44.2,73.1-78.2,123.8-74.9c-37.4,40.7-59.3,93.4-61.6,148.6c-0.8,21.3,0.5,45.1-13.7,61.1
	c-8.8,9.9-22.3,14.7-35.5,15.8c-13.2,1-26.5-1.4-39.5-3.8l-3.2,1C349.4,431.2,355.1,378.5,380.3,334.3z"/>
<path class="st1" d="M504.2,260.4c-37.5,18.1-69.5,48.2-89.2,85.1c-4.2,8-7.9,16.4-9.4,25.3c-1.6,8.9-0.5,17.4,2.6,25.9
	c2.8,7.8,6.5,15.4,7.4,23.7c0.9,8.7-2.3,16.9-8.1,23.4c-7.1,7.9-16.6,12.9-26.1,17.3c-10.5,5-21.5,10-29,19.3
	c-0.9,1.1-2.6-0.3-1.7-1.5c13-16.2,35.1-19.2,50.5-32.3c7.2-6.1,12.6-14.4,12.2-24.1c-0.3-8.5-4.2-16.3-7-24.2
	c-3-8.2-4.5-16.5-3.5-25.2c1.1-9,4.4-17.6,8.4-25.6c9.1-18.1,21.5-34.7,35.7-49.1c16.4-16.5,35.4-30.1,56.4-40.2
	C504.8,257.7,505.5,259.8,504.2,260.4L504.2,260.4z"/>
<path class="st1" d="M420.8,333.2c-11.9-8.7-15.7-24.7-9.1-37.8c0.7-1.3,2.7-0.3,2,1c-6.2,12.2-2.6,27.2,8.5,35.2
	C423.4,332.3,421.9,334,420.8,333.2z"/>
<path class="st1" d="M406.2,393c14.4-2.1,27.5-9.6,36.7-20.9c0.9-1.1,2.6,0.3,1.7,1.5c-9.6,11.8-23.2,19.5-38.2,21.7
	C404.9,395.4,404.8,393.2,406.2,393L406.2,393z"/>
<path class="st1" d="M464.6,284.8c3.8,4.2,9.5,6.3,15.2,5.4c1.4-0.2,1.6,2,0.2,2.2c-6.3,0.9-12.6-1.3-16.8-6
	c-0.4-0.4-0.5-1.1-0.1-1.6C463.4,284.4,464.1,284.4,464.6,284.8L464.6,284.8z"/>
<path class="st0" d="M605.1,398.9c-0.9,0.2-1.8,0.3-2.7,0.5c-11.9,2.3-23.6,5.5-35,9.7c-0.9,0.3-1.8,0.6-2.7,1
	c-27.3,10.3-52.5,25.7-74.3,45.2c-8.6,7.8-16.7,16.2-24.1,25.2c-10.2,12.4-20.2,26.7-33.5,34.8c-1.4,0.9-2.8,1.6-4.3,2.3L352,485.8
	c-0.1-0.2-0.3-0.3-0.4-0.5l-3.1-1.1c0.3-0.5,0.7-1,1.1-1.5c0.2-0.3,0.4-0.6,0.6-0.8c0.1-0.2,0.3-0.4,0.4-0.6c0-0.1,0.1-0.1,0.1-0.2
	c0.1-0.2,0.2-0.3,0.3-0.5c2.1-2.8,4.2-5.6,6.3-8.4c0,0,0,0,0,0c16.2-21.2,34.2-41.3,54.8-57.9c0.6-0.5,1.2-1,1.9-1.5
	c9.3-7.5,19.2-14.2,29.6-20c5.7-3.2,11.6-6.1,17.5-8.7c15.5-6.7,31.9-10.9,48.7-12.4c33.5-3.1,67.6,4.5,93.3,25.6
	C603.8,397.8,604.5,398.3,605.1,398.9z"/>
<path class="st1" d="M604.5,399.8c-40.8-8.2-84.6-3.3-122.4,14.2c-8.2,3.8-16.2,8.4-22.8,14.5c-6.6,6.2-10.9,13.6-13.5,22.2
	c-2.4,7.9-4,16.2-8.3,23.3c-4.5,7.5-12,12.1-20.6,13.8c-10.4,2.1-21,0.3-31.3-1.8c-11.4-2.4-23.2-5-34.7-2c-1.4,0.4-1.9-1.8-0.5-2.2
	c20.1-5.1,39.6,5.8,59.8,4.7c9.4-0.5,18.7-3.9,24.3-11.9c4.9-7,6.5-15.5,8.9-23.5c2.5-8.4,6.3-15.9,12.4-22.2
	c6.3-6.5,14.1-11.4,22.1-15.4c18.2-9,38.1-14.8,58.1-17.7c23-3.3,46.4-2.7,69.2,1.8C606.6,397.9,605.9,400,604.5,399.8L604.5,399.8z
	"/>
<path class="st1" d="M494.1,407.6c-4.3-14.1,2.3-29.2,15.5-35.7c1.3-0.6,2.3,1.4,1,2c-12.3,6-18.4,20.1-14.4,33.2
	C496.7,408.5,494.5,409,494.1,407.6L494.1,407.6z"/>
<path class="st1" d="M446.5,446.6c12.8,7,27.7,8.9,41.9,5.4c1.4-0.4,1.9,1.8,0.5,2.2c-14.7,3.6-30.3,1.6-43.6-5.7
	C444,447.8,445.2,445.9,446.5,446.6z"/>
<path class="st1" d="M558.2,395.3c0.5,5.7,3.8,10.8,8.9,13.5c1.3,0.7,0.1,2.6-1.2,1.9c-5.5-3-9.2-8.6-9.9-14.9
	c-0.1-0.6,0.3-1.2,0.9-1.3C557.5,394.3,558.1,394.7,558.2,395.3L558.2,395.3z"/>
<path class="st2" d="M459.2,451.3c-10.7-51.9-24.1-69.2-24.1-69.2l-5.1-4l-6.2-4.8l0-0.6l-1.5-0.5L422,372l-0.6-0.4l-0.1,0.1
	l-0.2,0.2l-27.9-9.5l-35.4-12l-16.4-21.3c-5.4-7-13.8-11.1-22.7-11.1l-52.3,0.4c-7.1,0.1-13.9,2.7-19.1,7.6l-34.4,31.9l-53.6,25.6
	l-0.1-0.1l-0.6,0.4l-8.3,4l0.3,1.8l-5.1,3.7c0,0-13.4,16.1-24.1,64.4c-2.7,12.3-4.1,38.6-4.6,71.1c-0.1,6.8,5.4,12.5,12.2,12.6
	c0.1,0,0.1,0,0.2,0h286.1v0h35.7c6.8,0,12.4-5.6,12.4-12.4c0-0.1,0-0.1,0-0.2C463.3,493.3,461.9,464.6,459.2,451.3z"/>
<path class="st3" d="M495.9,99c-23.2,0-42,18.8-42,42c0,23.2,18.8,42,42,42c0,0,0,0,0,0h312.8c23.2,0,42-18.8,42-42
	c0-23.2-18.8-41.9-42-42H495.9z"/>
<path class="st1" d="M495.9,107.5c-18.5,0-33.5,15-33.5,33.5c0,18.5,15,33.5,33.5,33.5c0,0,0,0,0,0h312.8c18.5,0,33.5-15,33.5-33.5
	c0-18.5-15-33.5-33.5-33.5H495.9z"/>
<circle id="e096411a-cdc3-4e6d-bbd4-4630e1fee17e" class="st4" cx="300.9" cy="229.8" r="68.5"/>
<path class="st5" d="M283.4,295c-0.3-0.6-0.6-1.3-0.9-1.9c0.1,0,0.2,0,0.3,0L283.4,295z"/>
<path class="st5" d="M230.5,164.4c3.5-2.8,7.5-5.3,11.9-5.2c4.4,0.1,8.9,4.1,8,8.5c16.8-29.7,52.5-43.1,84.7-31.8
	c11,3.9,21.8,11.7,24.3,23.1c0.6,2.9,0.8,6.1,2.6,8.5c2.3,3,6.7,3.7,10.3,2.6c0,0,0.1,0,0.1,0c1.7-0.6,3.5,0.3,4.1,2
	c0.3,0.8,0.2,1.8-0.2,2.6l-3.1,5.8c3.9,0.9,8,0.8,11.9-0.3c1.7-0.5,3.5,0.6,3.9,2.3c0.2,0.9,0.1,1.9-0.5,2.7
	c-10.3,14.1-27.4,23.2-45,23.1c-12.4-0.1-25-4.4-37.1-1.5c-17.3,4.1-28.1,21.5-24,38.8c0.5,2.2,1.3,4.4,2.3,6.5
	c-3.7-4.1-10.9-3.1-14.7,0.9c-3.8,4-4.8,9.9-4.4,15.5c0.6,8.4,3.9,16.3,7.4,24.1c-29.1-0.9-56.7-21.4-66-49
	C197.8,215.8,207.6,182.7,230.5,164.4z"/>
<polygon class="st6" points="184.6,435.6 203.8,540.2 215.4,541.2 "/>
<polygon class="st6" points="396.3,427.7 377.1,540.1 365.6,541.2 "/>
<path class="st7" d="M246.9,129.2c-3.7,1.5-7.5-0.1-9.1-4c-1.6-3.9-0.1-7.9,3.6-9.5c3.7-1.6,7.5,0.1,9.2,4.1
	C252.2,123.8,250.7,127.7,246.9,129.2z M239.8,108.1l-2.9,1.2c-1.5,0.6-3.3,0-4-1.5l-0.1-0.3c-3.2-5.7-3.5-12.6-1.1-20.5
	c2.3-7.1,3.2-12.1,1.3-16.7c-2.2-5.2-6.9-6.9-12.8-4.5c-2.3,1-3,0.9-4.9,2.8c-0.8,0.8-1.9,1.2-3,1.2c-1.1,0-2.1-0.5-2.9-1.3
	c-1.5-1.6-1.5-4,0-5.6c3.1-3.2,6.7-5.7,10.8-7.4c12.8-5.3,19.3,2.5,22.2,9.6c2.9,6.9,1.3,13.3-1.3,21.6c-2.2,6.9-2.1,12,0.4,17.1
	c0.7,1.6,0.1,3.4-1.5,4.2C239.9,108,239.9,108,239.8,108.1L239.8,108.1z"/>
<path class="st7" d="M565,160.9h-62.2c-0.8,0-1.5-0.7-1.5-1.5c0-0.8,0.7-1.5,1.5-1.5c0,0,0,0,0,0H565c0.8,0,1.5,0.7,1.5,1.5
	C566.5,160.3,565.8,160.9,565,160.9z"/>
<path class="st7" d="M643.9,161.4h-62.2c-0.8,0-1.5-0.7-1.5-1.5c0-0.8,0.7-1.5,1.5-1.5c0,0,0,0,0,0h62.2c0.8,0,1.5,0.7,1.5,1.5
	C645.5,160.8,644.8,161.4,643.9,161.4C643.9,161.4,643.9,161.4,643.9,161.4L643.9,161.4z"/>
<path class="st7" d="M722.9,161.9h-62.2c-0.8,0-1.5-0.7-1.5-1.5c0-0.8,0.7-1.5,1.5-1.5h62.2c0.8,0,1.5,0.7,1.5,1.5
	C724.4,161.3,723.7,161.9,722.9,161.9C722.9,161.9,722.9,161.9,722.9,161.9L722.9,161.9z"/>
<path class="st7" d="M801.8,162.4h-62.2c-0.8,0-1.5-0.7-1.5-1.5c0-0.8,0.7-1.5,1.5-1.5h62.2c0.8,0,1.5,0.7,1.5,1.5
	C803.3,161.8,802.6,162.4,801.8,162.4L801.8,162.4z"/>
<circle class="st7" cx="533.7" cy="135.6" r="11.6"/>
<circle class="st7" cx="613.2" cy="135.6" r="11.6"/>
<circle class="st7" cx="692.6" cy="135.6" r="11.6"/>
<circle class="st7" cx="772" cy="135.6" r="11.6"/>
</svg>
