<?xml version="1.0" encoding="utf-8"?>
<!-- Generator: Adobe Illustrator 25.2.1, SVG Export Plug-In . SVG Version: 6.00 Build 0)  -->
<svg version="1.1" id="currentIllo" xmlns="http://www.w3.org/2000/svg" xmlns:xlink="http://www.w3.org/1999/xlink" x="0px"
	 y="0px" viewBox="0 0 870 520.1" style="enable-background:new 0 0 870 520.1;" xml:space="preserve">
<style type="text/css">
	.st0{fill:#F2F2F2;}
	.st1{fill:#FFFFFF;}
	.st2{fill:#CCCCCC;}
	.st3{fill:#6C63FF;}
	.st4{fill:#FFB8B8;}
	.st5{fill:#2F2E41;}
	.st6{fill:#3F3D56;}
</style>
<path class="st0" d="M613.2,456.2c-8.6-7.3-13.8-18.7-12.4-29.9c1.4-11.2,9.8-21.4,20.8-23.8s23.5,4.2,26.9,14.9
	c1.8-20.7,4-42.3,15-59.9c10-16,27.2-27.4,45.9-29.4s38.4,5.7,50.1,20.4c11.7,14.8,14.5,36.2,6.4,53.2c-6,12.5-17.1,21.8-28.7,29.3
	c-37.6,24.2-82.6,34.1-126.8,27.7L613.2,456.2z"/>
<path class="st1" d="M741,334.2c-15.4,12.6-29.6,26.6-42.3,42c-19.8,23.9-35.9,50.8-47.6,79.6c-0.9,2.1,2.6,3,3.4,0.9
	c19.2-46.8,49.8-88.1,89-120C745.2,335.3,742.7,332.8,741,334.2z"/>
<path class="st0" d="M315.5,454.2c11.8-10,19-25.7,17.1-41s-13.5-29.4-28.6-32.7c-15.1-3.3-32.3,5.8-36.9,20.5
	c-2.5-28.4-5.4-58.1-20.6-82.3c-13.7-21.9-37.4-37.6-63.1-40.4s-52.8,7.8-68.8,28.1c-16,20.3-20,49.8-8.7,73.1
	c8.3,17.2,23.5,29.9,39.5,40.3c50.9,33.1,114.1,47,174.2,38.1"/>
<path class="st1" d="M140.1,286.7c21.2,17.3,40.7,36.6,58.1,57.7s32.8,43.8,45.8,67.8c7.3,13.5,13.8,27.3,19.6,41.5
	c1.2,2.9-3.5,4.1-4.7,1.3c-10.2-25-22.9-49-37.8-71.5c-14.8-22.5-31.8-43.4-50.7-62.6c-10.7-10.8-21.9-21.1-33.8-30.7
	C134.2,288.1,137.7,284.7,140.1,286.7L140.1,286.7z"/>
<path class="st0" d="M581.1,459.9H299.7V171c0-61.4,50-111.4,111.4-111.4h58.6c61.4,0,111.4,50,111.4,111.4L581.1,459.9L581.1,459.9
	z"/>
<path class="st2" d="M522.5,459.9H299.7V171c-0.1-23.5,7.4-46.5,21.3-65.5c0.5-0.7,1-1.4,1.5-2.1c6.7-8.8,14.7-16.6,23.7-23
	c0.5-0.4,1-0.7,1.5-1.1c7.5-5.2,15.7-9.5,24.3-12.7c0.5-0.2,1-0.4,1.5-0.6c7.8-2.8,15.8-4.7,24-5.7c0.5-0.1,1-0.1,1.5-0.2
	c8-0.9,16-0.9,24,0c0.5,0.1,1,0.1,1.6,0.2c8.2,1,16.2,2.9,24,5.7c0.5,0.2,1,0.4,1.5,0.6c8.5,3.2,16.5,7.4,24,12.5
	c0.5,0.4,1,0.7,1.5,1.1c5,3.6,9.8,7.6,14.2,12c3.5,3.5,6.8,7.3,9.8,11.2c0.5,0.7,1,1.4,1.5,2.1c13.9,19,21.3,42,21.3,65.5
	L522.5,459.9L522.5,459.9z"/>
<ellipse transform="matrix(0.1602 -0.9871 0.9871 0.1602 109.3772 765.2324)" class="st3" cx="504.4" cy="318.3" rx="12.3" ry="12.3"/>
<polygon class="st4" points="558.1,451.2 548.6,451.2 544.1,414.7 558.1,414.7 "/>
<path class="st5" d="M541.9,448.5h18.2l0,0V460l0,0h-29.7l0,0l0,0C530.4,453.6,535.5,448.5,541.9,448.5L541.9,448.5z"/>
<polygon class="st4" points="605.1,451.2 595.7,451.2 591.2,414.7 605.1,414.7 "/>
<path class="st5" d="M588.9,448.5h18.2l0,0V460l0,0h-29.7l0,0l0,0C577.4,453.6,582.6,448.5,588.9,448.5L588.9,448.5z"/>
<path class="st4" d="M510.7,320.8c-2.6-3.8-1.6-8.9,2.2-11.5c0.4-0.3,0.8-0.5,1.3-0.7l32.1-88.6l15.8,8.6l-36.7,84.7
	c1.6,4.3-0.6,9.1-4.9,10.7C516.8,325.3,512.8,324,510.7,320.8z"/>
<path class="st4" d="M600.3,337.4c-4-2.3-5.3-7.3-3.1-11.3c0.2-0.4,0.5-0.8,0.8-1.2l-10-93.7l18,0.8l4.1,92.2
	c3.3,3.2,3.4,8.5,0.3,11.8C607.8,338.8,603.6,339.4,600.3,337.4L600.3,337.4z"/>
<circle class="st4" cx="571.6" cy="184.6" r="18.9"/>
<path class="st3" d="M600.2,316.1h-57.1l0.1-0.4c0.1-0.7,10.2-66.7,2.7-88.3c-1.5-4.4,0.5-9.2,4.7-11.2l0,0c10.6-5,31-11.2,48.2,3.8
	c5.1,4.5,7.8,11.2,7.3,18L600.2,316.1z"/>
<path class="st3" d="M554,258.8l-25.7-5.2l12.1-28.6c1.5-5.8,7.4-9.2,13.2-7.7c5.7,1.5,9.2,7.4,7.7,13.1L554,258.8z"/>
<path class="st3" d="M587,268.4l-1.5-35.4c-1.2-6.7,2.6-13,8.5-14s11.6,3.6,12.8,10.3l5.8,33.1L587,268.4z"/>
<path class="st5" d="M598.3,311.9c9.2,35,10.2,79.5,7.7,128l-12.3-1.5l-22.4-92.5L559,440l-13.9-0.8c-4.1-50.9-8.2-94.6-1.5-123.4
	L598.3,311.9z"/>
<path class="st5" d="M584.1,199.3c-3.5,3.8-10.1,1.7-10.6-3.4c0-0.4,0-0.8,0-1.2c0.2-2.3,1.6-4.3,1.2-6.8c-0.1-0.6-0.3-1.2-0.6-1.7
	c-2.8-3.8-9.4,1.7-12.1-1.7c-1.6-2.1,0.3-5.4-1-7.7c-1.7-3.1-6.5-1.6-9.6-3.3c-3.4-1.9-3.2-7.1-1-10.3c2.7-3.9,7.5-6,12.3-6.3
	c4.7-0.3,9.4,1,13.9,2.7c5,2,10,4.7,13.1,9.1c3.8,5.4,4.1,12.6,2.2,18.9C590.9,191.5,586.9,196.2,584.1,199.3z"/>
<path class="st6" d="M747.3,460.3H178c-0.5,0-0.9-0.4-0.9-0.9s0.4-0.9,0.9-0.9h569.4c0.5,0,0.9,0.4,0.9,0.9
	C748.2,459.9,747.8,460.3,747.3,460.3z"/>
<path class="st1" d="M461.2,376.2H361c-2.7,0-5-2.2-5-4.9V147.5c0-2.7,2.3-5,5-4.9h100.3c2.7,0,5,2.2,5,4.9v223.8
	C466.2,374,464,376.2,461.2,376.2z"/>
<rect x="356" y="214.9" class="st2" width="110.3" height="1.5"/>
<rect x="356.3" y="302.9" class="st2" width="110.3" height="1.5"/>
<rect x="390.7" y="142.5" class="st2" width="1.5" height="234.4"/>
<rect x="429.2" y="142.5" class="st2" width="1.5" height="234.4"/>
</svg>
